<svg width="448" height="109" viewBox="0 0 448 109" fill="none" xmlns="http://www.w3.org/2000/svg">
<g clip-path="url(#clip0_48_48)">
<rect width="448" height="109" rx="12" fill="#EEEEEE"/>
<circle cx="33" cy="30" r="15" fill="#DADADA"/>
<rect x="60" y="16" width="78" height="14" rx="2" fill="#DADADA"/>
<rect x="60" y="38" width="367" height="14" rx="2" fill="#DADADA"/>
<rect x="60" y="58" width="367" height="14" rx="2" fill="#DADADA"/>
<rect x="146" y="16" width="14" height="14" rx="2" fill="#DADADA"/>
<rect x="60" y="80" width="28" height="14" rx="2" fill="#DADADA"/>
<rect x="144.75" y="80" width="28" height="14" rx="2" fill="#DADADA"/>
<rect x="229.5" y="80" width="28" height="14" rx="2" fill="#DADADA"/>
<rect x="314.25" y="80" width="28" height="14" rx="2" fill="#DADADA"/>
<rect x="399" y="80" width="28" height="14" rx="2" fill="#DADADA"/>
<rect x="395" y="16" width="14" height="14" rx="2" fill="#DADADA"/>
<rect x="413" y="16" width="14" height="14" rx="2" fill="#DADADA"/>
</g>
<rect x="0.5" y="0.5" width="447" height="108" rx="11.5" stroke="#DADADA"/>
<defs>
<clipPath id="clip0_48_48">
<rect width="448" height="109" rx="12" fill="white"/>
</clipPath>
</defs>
</svg>
