<svg width="448" height="168" viewBox="0 0 448 168" fill="none" xmlns="http://www.w3.org/2000/svg">
<g clip-path="url(#clip0_18_5065)">
<rect x="56" width="336" height="81.75" rx="9" fill="#EEEEEE"/>
<circle cx="80.75" cy="22.5" r="11.25" fill="#DADADA"/>
<rect x="101" y="12" width="58.5" height="10.5" rx="1.5" fill="#DADADA"/>
<rect x="101" y="28.5" width="275.25" height="10.5" rx="1.5" fill="#DADADA"/>
<rect x="101" y="43.5" width="275.25" height="10.5" rx="1.5" fill="#DADADA"/>
<rect x="165.5" y="12" width="10.5" height="10.5" rx="1.5" fill="#DADADA"/>
<rect x="101" y="60" width="21" height="10.5" rx="1.5" fill="#DADADA"/>
<rect x="164.562" y="60" width="21" height="10.5" rx="1.5" fill="#DADADA"/>
<rect x="228.125" y="60" width="21" height="10.5" rx="1.5" fill="#DADADA"/>
<rect x="291.688" y="60" width="21" height="10.5" rx="1.5" fill="#DADADA"/>
<rect x="355.25" y="60" width="21" height="10.5" rx="1.5" fill="#DADADA"/>
<rect x="352.25" y="12" width="10.5" height="10.5" rx="1.5" fill="#DADADA"/>
<rect x="365.75" y="12" width="10.5" height="10.5" rx="1.5" fill="#DADADA"/>
</g>
<rect x="56.5" y="0.5" width="335" height="80.75" rx="8.5" stroke="#DADADA"/>
<g clip-path="url(#clip1_18_5065)">
<rect y="59" width="448" height="109" rx="12" fill="#EEEEEE"/>
<circle cx="33" cy="89" r="15" fill="#DADADA"/>
<rect x="60" y="75" width="78" height="14" rx="2" fill="#DADADA"/>
<rect x="60" y="97" width="367" height="14" rx="2" fill="#DADADA"/>
<rect x="60" y="117" width="367" height="14" rx="2" fill="#DADADA"/>
<rect x="146" y="75" width="14" height="14" rx="2" fill="#DADADA"/>
<rect x="60" y="139" width="28" height="14" rx="2" fill="#DADADA"/>
<rect x="144.75" y="139" width="28" height="14" rx="2" fill="#DADADA"/>
<rect x="229.5" y="139" width="28" height="14" rx="2" fill="#DADADA"/>
<rect x="314.25" y="139" width="28" height="14" rx="2" fill="#DADADA"/>
<rect x="399" y="139" width="28" height="14" rx="2" fill="#DADADA"/>
<rect x="395" y="75" width="14" height="14" rx="2" fill="#DADADA"/>
<rect x="413" y="75" width="14" height="14" rx="2" fill="#DADADA"/>
</g>
<rect x="0.5" y="59.5" width="447" height="108" rx="11.5" stroke="#DADADA"/>
<defs>
<clipPath id="clip0_18_5065">
<rect x="56" width="336" height="81.75" rx="9" fill="white"/>
</clipPath>
<clipPath id="clip1_18_5065">
<rect y="59" width="448" height="109" rx="12" fill="white"/>
</clipPath>
</defs>
</svg>