<svg width="40" height="40" viewBox="0 0 40 40" fill="none" xmlns="http://www.w3.org/2000/svg">
<path d="M16.6665 18.3334V28.3334" stroke="#6D6E71" stroke-width="3.33333" stroke-linecap="round" stroke-linejoin="round"/>
<path d="M23.3335 18.3334V28.3334" stroke="#6D6E71" stroke-width="3.33333" stroke-linecap="round" stroke-linejoin="round"/>
<path d="M31.6668 10V33.3333C31.6668 34.2174 31.3156 35.0652 30.6905 35.6904C30.0654 36.3155 29.2176 36.6667 28.3335 36.6667H11.6668C10.7828 36.6667 9.93493 36.3155 9.30981 35.6904C8.68469 35.0652 8.3335 34.2174 8.3335 33.3333V10" stroke="#6D6E71" stroke-width="3.33333" stroke-linecap="round" stroke-linejoin="round"/>
<path d="M5 10H35" stroke="#6D6E71" stroke-width="3.33333" stroke-linecap="round" stroke-linejoin="round"/>
<path d="M13.3335 10V6.66671C13.3335 5.78265 13.6847 4.93481 14.3098 4.30968C14.9349 3.68456 15.7828 3.33337 16.6668 3.33337H23.3335C24.2176 3.33337 25.0654 3.68456 25.6905 4.30968C26.3156 4.93481 26.6668 5.78265 26.6668 6.66671V10" stroke="#6D6E71" stroke-width="3.33333" stroke-linecap="round" stroke-linejoin="round"/>
</svg>
